<svg width="31" height="31" viewBox="0 0 31 31" fill="none" xmlns="http://www.w3.org/2000/svg">
<circle cx="15.5" cy="15.5" r="15.5" fill="#0089FF"/>
<path d="M16.0234 19.9531C16.2578 19.7188 16.2344 19.3672 16.0234 19.1328L13.1875 16.4375H19.9375C20.2422 16.4375 20.5 16.2031 20.5 15.875V15.125C20.5 14.8203 20.2422 14.5625 19.9375 14.5625H13.1875L16.0234 11.8906C16.2344 11.6562 16.2578 11.3047 16.0234 11.0703L15.5078 10.5547C15.2969 10.3438 14.9219 10.3438 14.7109 10.5547L10.1641 15.125C9.92969 15.3359 9.92969 15.6875 10.1641 15.8984L14.7109 20.4688C14.9219 20.6797 15.2734 20.6797 15.5078 20.4688L16.0234 19.9531Z" fill="white"/>
</svg>
